<?xml version="1.0" standalone="no"?>
<!DOCTYPE svg PUBLIC "-//W3C//DTD SVG 20010904//EN"
 "http://www.w3.org/TR/2001/REC-SVG-20010904/DTD/svg10.dtd">
<svg version="1.0" xmlns="http://www.w3.org/2000/svg"
 width="873.000000pt" height="873.000000pt" viewBox="0 0 873.000000 873.000000"
 preserveAspectRatio="xMidYMid meet">
<metadata>
Created by potrace 1.14, written by Peter Selinger 2001-2017
</metadata>
<g transform="translate(0.000000,873.000000) scale(0.100000,-0.100000)"
fill="#000000" stroke="none">
<path d="M4315 8714 c-7 -8 -18 -14 -22 -14 -5 0 -205 -98 -444 -217 -239
-119 -436 -217 -439 -218 -18 -5 -166 -81 -171 -88 -3 -5 -9 -8 -13 -8 -3 1
-131 -60 -284 -136 -152 -76 -279 -138 -282 -138 -3 0 -16 -7 -30 -15 -14 -7
-110 -56 -215 -107 -188 -92 -201 -99 -240 -121 -54 -31 -1136 -562 -1144
-562 -5 0 -11 -3 -13 -7 -2 -5 -64 -37 -138 -73 -74 -36 -137 -67 -140 -70 -3
-3 -40 -22 -82 -42 l-78 -38 0 -2495 0 -2496 643 -319 c353 -175 645 -319 649
-320 4 0 34 -15 65 -33 32 -18 74 -39 93 -47 19 -7 46 -21 60 -30 14 -10 35
-21 48 -25 13 -3 50 -22 83 -40 33 -19 60 -34 62 -34 15 -1 67 -25 67 -32 0
-5 5 -9 12 -9 6 0 228 -108 492 -239 265 -132 708 -352 985 -490 358 -178 512
-249 529 -246 13 2 116 49 228 105 112 55 207 100 210 100 4 -1 10 2 13 7 3 4
40 25 81 45 387 190 1458 721 1470 728 18 11 203 103 210 105 3 0 219 108 481
238 262 130 481 237 487 237 6 0 12 3 14 8 4 9 171 92 185 92 6 0 13 3 15 8 2
4 87 49 191 99 l187 93 -2 2496 -3 2495 -55 29 c-98 52 -1395 694 -1400 693
-3 -1 -16 7 -30 16 -14 10 -41 24 -60 31 -19 7 -41 18 -48 23 -7 5 -52 28
-100 51 -48 23 -103 51 -122 61 -19 11 -37 20 -40 20 -3 0 -165 80 -361 178
-195 97 -360 177 -366 177 -6 0 -13 3 -15 8 -3 6 -134 75 -148 78 -3 0 -228
112 -500 248 -276 138 -510 249 -528 251 -18 2 -39 -3 -47 -11z"/>
</g>
</svg>
