<svg version="1.1" viewBox="0.0 0.0 755.9055118110236 872.6929133858267" fill="none" stroke="none" stroke-linecap="square" stroke-miterlimit="10" xmlns:xlink="http://www.w3.org/1999/xlink" xmlns="http://www.w3.org/2000/svg"><clipPath id="p.0"><path d="m0 0l755.9055 0l0 872.69293l-755.9055 0l0 -872.69293z" clip-rule="nonzero"/></clipPath><g clip-path="url(#p.0)"><path fill="#000000" fill-opacity="0.0" d="m0 0l755.9055 0l0 872.69293l-755.9055 0z" fill-rule="evenodd"/><defs><radialGradient id="p.1" gradientUnits="userSpaceOnUse" gradientTransform="matrix(0.0 -23.813917134277073 23.813917134277073 0.0 0.0 0.0)" spreadMethod="pad" cx="-18.323170196340723" cy="15.871086794519615" fx="-18.323170196340723" fy="15.871086794519615" r="23.81391716003418"><stop offset="0.0" stop-color="#db0000"/><stop offset="0.68" stop-color="#980202"/><stop offset="1.0" stop-color="#540303"/></radialGradient></defs><path fill="url(#p.1)" d="m377.95276 864.4724l-371.90533 -184.53204l0 -487.1878l371.90533 -184.53207l371.90533 184.53207l0 487.1878z" fill-rule="evenodd"/><path stroke="#610000" stroke-width="16.0" stroke-linejoin="round" stroke-linecap="butt" d="m377.95276 864.4724l-371.90533 -184.53204l0 -487.1878l371.90533 -184.53207l371.90533 184.53207l0 487.1878z" fill-rule="evenodd"/><path fill="#000000" fill-opacity="0.0" d="m-0.67979 421.73227l757.7008 0l0 284.31497l-757.7008 0z" fill-rule="evenodd"/><path fill="#610000" d="m172.44261 546.68665q0 5.859375 -0.328125 9.609375q-0.328125 3.734375 -0.984375 5.859375q-0.640625 2.109375 -1.703125 2.921875q-1.046875 0.8125 -2.671875 0.8125q-1.3125 0 -2.9375 -0.5625q-1.625 -0.578125 -3.671875 -1.21875q-2.03125 -0.65625 -4.46875 -1.21875q-2.4375 -0.578125 -5.375 -0.578125q-3.40625 0 -6.828125 1.390625q-3.421875 1.375 -7.078125 4.3125q-3.65625 2.921875 -7.65625 7.8125q-3.9843674 4.875 -8.546867 12.03125l0 90.5q0 1.625 -0.984375 2.84375q-0.96875 1.21875 -3.328125 2.03125q-2.359375 0.8125 -6.265625 1.21875q-3.90625 0.40625 -9.921875 0.40625q-6.015625 0 -9.921875 -0.40625q-3.90625 -0.40625 -6.28125 -1.21875q-2.359375 -0.8125 -3.34375 -2.03125q-0.96875 -1.21875 -0.96875 -2.84375l0 -145.1875q0 -1.625 0.8125 -2.84375q0.828125 -1.21875 2.9375 -2.03125q2.109375 -0.8125 5.453125 -1.21875q3.34375 -0.40625 8.375 -0.40625q5.21875 0 8.625 0.40625q3.421875 0.40625 5.296875 1.21875q1.875 0.8125 2.6875 2.03125q0.8125 1.21875 0.8125 2.84375l0 18.078125q5.703125 -8.140625 10.734375 -13.421875q5.0468674 -5.296875 9.609367 -8.390625q4.5625 -3.09375 9.109375 -4.3125q4.5625 -1.21875 9.125 -1.21875q2.109375 0 4.546875 0.25q2.453125 0.234375 5.046875 0.8125q2.609375 0.5625 4.5625 1.296875q1.953125 0.71875 2.84375 1.546875q0.90625 0.8125 1.3125 1.796875q0.40625 0.96875 0.71875 2.671875q0.328125 1.703125 0.484375 5.125q0.171875 3.421875 0.171875 9.28125zm141.60103 132.15625q0 2.28125 -1.625 3.59375q-1.625 1.296875 -5.125 1.859375q-3.5 0.5625 -10.34375 0.5625q-7.3125 0 -10.65625 -0.5625q-3.34375 -0.5625 -4.734375 -1.859375q-1.375 -1.3125 -1.375 -3.59375l0 -11.546875q-8.953125 9.59375 -20.421875 14.96875q-11.468765 5.375 -25.468765 5.375q-11.5625 0 -21.25 -3.015625q-9.671875 -3.015625 -16.75 -8.953125q-7.078125 -5.9375 -10.984375 -14.71875q-3.90625 -8.796875 -3.90625 -20.515625q0 -12.703125 4.953125 -22.0625q4.96875 -9.359375 14.8125 -15.453125q9.84375 -6.109375 24.484375 -9.03125q14.65625 -2.9375 34.031265 -2.9375l14.15625 0l0 -8.78125q0 -6.84375 -1.390625 -11.96875q-1.375 -5.125 -4.546875 -8.546875q-3.171875 -3.421875 -8.46875 -5.046875q-5.2812653 -1.625 -13.093765 -1.625q-10.25 0 -18.3125 2.28125q-8.0625 2.28125 -14.25 5.046875q-6.171875 2.765625 -10.328125 5.046875q-4.15625 2.28125 -6.75 2.28125q-1.796875 0 -3.1875 -1.140625q-1.375 -1.140625 -2.28125 -3.25q-0.890625 -2.125 -1.375 -5.21875q-0.484375 -3.09375 -0.484375 -6.828125q0 -5.046875 0.8125 -7.96875q0.8125 -2.9375 3.09375 -5.296875q2.28125 -2.359375 7.96875 -5.203125q5.703125 -2.859375 13.34375 -5.296875q7.65625 -2.453125 16.6875 -3.984375q9.03125 -1.546875 18.640625 -1.546875q17.093765 0 29.218765 3.34375q12.125 3.328125 19.9375 10.25q7.8125 6.90625 11.390625 17.8125q3.578125 10.90625 3.578125 25.875l0 97.65625zm-40.203125 -62.171875l-15.625 0q-9.92189 0 -16.92189 1.46875q-7.0 1.453125 -11.40625 4.390625q-4.390625 2.921875 -6.421875 7.078125q-2.03125 4.15625 -2.03125 9.515625q0 9.125 5.78125 14.328125q5.78125 5.203125 16.03125 5.203125q8.625 0 15.85939 -4.390625q7.25 -4.390625 14.734375 -12.859375l0 -24.734375zm183.26697 20.671875q0 12.375 -4.640625 21.8125q-4.640625 9.4375 -13.109375 15.78125q-8.453125 6.34375 -20.015625 9.515625q-11.546875 3.1875 -25.0625 3.1875q-8.140625 0 -15.546875 -1.234375q-7.390625 -1.21875 -13.25 -3.078125q-5.859375 -1.875 -9.765625 -3.828125q-3.90625 -1.953125 -5.703125 -3.65625q-1.796875 -1.71875 -2.78125 -5.375q-0.96875 -3.671875 -0.96875 -10.828125q0 -4.71875 0.328125 -7.5625q0.328125 -2.859375 0.96875 -4.5625q0.65625 -1.703125 1.625 -2.265625q0.984375 -0.578125 2.453125 -0.578125q1.796875 0 5.296875 2.03125q3.5 2.03125 8.703125 4.484375q5.203125 2.4375 12.125 4.546875q6.921875 2.109375 15.703125 2.109375q5.53125 0 9.84375 -1.125q4.3125 -1.140625 7.484375 -3.25q3.1875 -2.125 4.8125 -5.375q1.625 -3.265625 1.625 -7.5q0 -4.875 -3.015625 -8.375q-3.0 -3.5 -7.96875 -6.109375q-4.96875 -2.609375 -11.234375 -4.875q-6.265625 -2.28125 -12.859375 -5.046875q-6.59375 -2.765625 -12.859375 -6.34375q-6.265625 -3.59375 -11.234375 -8.796875q-4.953125 -5.203125 -7.96875 -12.53125q-3.015625 -7.328125 -3.015625 -17.578125q0 -10.421875 4.0625 -19.125q4.078125 -8.703125 11.71875 -14.890625q7.65625 -6.1875 18.640625 -9.59375q11.0 -3.421875 24.671875 -3.421875q6.828125 0 13.25 0.984375q6.4375 0.96875 11.640625 2.4375q5.21875 1.453125 8.796875 3.171875q3.578125 1.703125 5.125 2.921875q1.546875 1.21875 2.1875 2.4375q0.65625 1.21875 0.984375 2.9375q0.328125 1.703125 0.5625 4.234375q0.25 2.515625 0.25 6.265625q0 4.390625 -0.25 7.15625q-0.234375 2.765625 -0.8125 4.390625q-0.5625 1.625 -1.546875 2.203125q-0.96875 0.5625 -2.265625 0.5625q-1.46875 0 -4.5625 -1.703125q-3.09375 -1.71875 -7.734375 -3.671875q-4.640625 -1.953125 -10.75 -3.65625q-6.09375 -1.703125 -13.90625 -1.703125q-5.53125 0 -9.609375 1.140625q-4.0625 1.140625 -6.671875 3.25q-2.59375 2.109375 -3.90625 4.96875q-1.296875 2.84375 -1.296875 6.09375q0 5.046875 3.09375 8.46875q3.09375 3.421875 8.140625 6.03125q5.046875 2.59375 11.46875 4.875q6.4375 2.28125 13.015625 4.96875q6.59375 2.671875 13.015625 6.265625q6.4375 3.578125 11.484375 8.78125q5.046875 5.203125 8.140625 12.453125q3.09375 7.234375 3.09375 17.171875zm112.948425 26.6875q0 7.171875 -0.890625 11.0q-0.890625 3.8125 -2.359375 5.359375q-1.46875 1.546875 -4.3125 2.765625q-2.84375 1.21875 -6.671875 2.109375q-3.828125 0.90625 -8.3125 1.390625q-4.46875 0.484375 -9.015625 0.484375q-12.21875 0 -21.171875 -3.09375q-8.9374695 -3.078125 -14.7968445 -9.5q-5.859375 -6.4375 -8.640625 -16.203125q-2.765625 -9.765625 -2.765625 -23.125l0 -74.375l-17.40625 0q-3.09375 0 -4.71875 -3.8125q-1.625 -3.828125 -1.625 -12.78125q0 -4.71875 0.40625 -7.96875q0.40625 -3.265625 1.21875 -5.140625q0.8125 -1.875 2.03125 -2.6875q1.21875 -0.8125 2.84375 -0.8125l17.25 0l0 -32.390656q0 -1.625 0.890625 -2.921875q0.90625 -1.3125 3.265625 -2.203125q2.359375 -0.890625 6.34375 -1.296875q3.984375 -0.40625 9.84375 -0.40625q6.0312195 0 10.0155945 0.40625q3.984375 0.40625 6.265625 1.296875q2.28125 0.890625 3.25 2.203125q0.984375 1.296875 0.984375 2.921875l0 32.390656l31.578125 0q1.625 0 2.84375 0.8125q1.21875 0.8125 2.03125 2.6875q0.8125 1.875 1.21875 5.140625q0.40625 3.25 0.40625 7.96875q0 8.953125 -1.625 12.78125q-1.625 3.8125 -4.71875 3.8125l-31.734375 0l0 68.203125q0 11.875 3.734375 17.8125q3.75 5.9375 13.359375 5.9375q3.25 0 5.84375 -0.5625q2.609375 -0.5625 4.640625 -1.296875q2.046875 -0.734375 3.421875 -1.296875q1.390625 -0.578125 2.53125 -0.578125q0.96875 0 1.859375 0.578125q0.90625 0.5625 1.390625 2.28125q0.484375 1.703125 0.890625 4.640625q0.40625 2.921875 0.40625 7.46875zm122.88623 -117.34375q0 5.859375 -0.328125 9.609375q-0.328125 3.734375 -0.984375 5.859375q-0.640625 2.109375 -1.703125 2.921875q-1.046875 0.8125 -2.671875 0.8125q-1.3125 0 -2.9375 -0.5625q-1.625 -0.578125 -3.671875 -1.21875q-2.03125 -0.65625 -4.46875 -1.21875q-2.4375 -0.578125 -5.375 -0.578125q-3.40625 0 -6.828125 1.390625q-3.421875 1.375 -7.078125 4.3125q-3.65625 2.921875 -7.65625 7.8125q-3.984375 4.875 -8.546875 12.03125l0 90.5q0 1.625 -0.984375 2.84375q-0.96875 1.21875 -3.328125 2.03125q-2.359375 0.8125 -6.265625 1.21875q-3.90625 0.40625 -9.921875 0.40625q-6.015625 0 -9.921875 -0.40625q-3.90625 -0.40625 -6.28125 -1.21875q-2.359375 -0.8125 -3.34375 -2.03125q-0.96875 -1.21875 -0.96875 -2.84375l0 -145.1875q0 -1.625 0.8125 -2.84375q0.828125 -1.21875 2.9375 -2.03125q2.109375 -0.8125 5.453125 -1.21875q3.34375 -0.40625 8.375 -0.40625q5.21875 0 8.625 0.40625q3.421875 0.40625 5.296875 1.21875q1.875 0.8125 2.6875 2.03125q0.8125 1.21875 0.8125 2.84375l0 18.078125q5.703125 -8.140625 10.734375 -13.421875q5.046875 -5.296875 9.609375 -8.390625q4.5625 -3.09375 9.109375 -4.3125q4.5625 -1.21875 9.125 -1.21875q2.109375 0 4.546875 0.25q2.453125 0.234375 5.046875 0.8125q2.609375 0.5625 4.5625 1.296875q1.953125 0.71875 2.84375 1.546875q0.90625 0.8125 1.3125 1.796875q0.40625 0.96875 0.71875 2.671875q0.328125 1.703125 0.484375 5.125q0.171875 3.421875 0.171875 9.28125z" fill-rule="nonzero"/><path fill="#610000" d="m340.15775 123.654854l0 0c0 -20.873756 16.921509 -37.79528 37.795288 -37.79528l0 0c10.023926 0 19.637299 3.9819946 26.72528 11.069984c7.087982 7.08799 11.069977 16.701363 11.069977 26.725296l0 0c0 20.873756 -16.921509 37.79528 -37.795258 37.79528l0 0c-20.87378 0 -37.795288 -16.921524 -37.795288 -37.79528z" fill-rule="evenodd"/><path stroke="#610000" stroke-width="4.0" stroke-linejoin="round" stroke-linecap="butt" d="m340.15775 123.654854l0 0c0 -20.873756 16.921509 -37.79528 37.795288 -37.79528l0 0c10.023926 0 19.637299 3.9819946 26.72528 11.069984c7.087982 7.08799 11.069977 16.701363 11.069977 26.725296l0 0c0 20.873756 -16.921509 37.79528 -37.795258 37.79528l0 0c-20.87378 0 -37.795288 -16.921524 -37.795288 -37.79528z" fill-rule="evenodd"/><path fill="#610000" d="m174.49066 225.66948l0 0c0 -20.873764 16.921524 -37.795273 37.795273 -37.795273l0 0c10.023926 0 19.637314 3.9819794 26.725296 11.069977c7.0879974 7.087982 11.069977 16.701355 11.069977 26.725296l0 0c0 20.873749 -16.921524 37.795273 -37.795273 37.795273l0 0c-20.873749 0 -37.795273 -16.921524 -37.795273 -37.795273z" fill-rule="evenodd"/><path stroke="#610000" stroke-width="4.0" stroke-linejoin="round" stroke-linecap="butt" d="m174.49066 225.66948l0 0c0 -20.873764 16.921524 -37.795273 37.795273 -37.795273l0 0c10.023926 0 19.637314 3.9819794 26.725296 11.069977c7.0879974 7.087982 11.069977 16.701355 11.069977 26.725296l0 0c0 20.873749 -16.921524 37.795273 -37.795273 37.795273l0 0c-20.873749 0 -37.795273 -16.921524 -37.795273 -37.795273z" fill-rule="evenodd"/><path fill="#610000" d="m505.8248 225.66948l0 0c0 -20.873764 16.92154 -37.795273 37.79532 -37.795273l0 0c10.023926 0 19.637268 3.9819794 26.72528 11.069977c7.0879517 7.087982 11.069946 16.701355 11.069946 26.725296l0 0c0 20.873749 -16.921509 37.795273 -37.795227 37.795273l0 0c-20.87378 0 -37.79532 -16.921524 -37.79532 -37.795273z" fill-rule="evenodd"/><path stroke="#610000" stroke-width="4.0" stroke-linejoin="round" stroke-linecap="butt" d="m505.8248 225.66948l0 0c0 -20.873764 16.92154 -37.795273 37.79532 -37.795273l0 0c10.023926 0 19.637268 3.9819794 26.72528 11.069977c7.0879517 7.087982 11.069946 16.701355 11.069946 26.725296l0 0c0 20.873749 -16.921509 37.795273 -37.795227 37.795273l0 0c-20.87378 0 -37.79532 -16.921524 -37.79532 -37.795273z" fill-rule="evenodd"/><path fill="#000000" fill-opacity="0.0" d="m351.22772 150.38014l-112.22046 48.56694" fill-rule="evenodd"/><path stroke="#610000" stroke-width="4.0" stroke-linejoin="round" stroke-linecap="butt" d="m351.22772 150.38014l-112.22046 48.56694" fill-rule="evenodd"/><path fill="#000000" fill-opacity="0.0" d="m404.6783 150.38014l112.22049 48.56694" fill-rule="evenodd"/><path stroke="#610000" stroke-width="4.0" stroke-linejoin="round" stroke-linecap="butt" d="m404.6783 150.38014l112.22049 48.56694" fill-rule="evenodd"/><path fill="#610000" d="m349.60657 270.48425l0 0c0 -15.655319 12.691132 -28.346466 28.346466 -28.346466l0 0c7.5179443 0 14.727966 2.986496 20.043976 8.30249c5.315979 5.3159943 8.30246 12.5260315 8.30246 20.043976l0 0c0 15.655304 -12.691132 28.346466 -28.346436 28.346466l0 0c-15.655334 0 -28.346466 -12.691162 -28.346466 -28.346466z" fill-rule="evenodd"/><path stroke="#610000" stroke-width="4.0" stroke-linejoin="round" stroke-linecap="butt" d="m349.60657 270.48425l0 0c0 -15.655319 12.691132 -28.346466 28.346466 -28.346466l0 0c7.5179443 0 14.727966 2.986496 20.043976 8.30249c5.315979 5.3159943 8.30246 12.5260315 8.30246 20.043976l0 0c0 15.655304 -12.691132 28.346466 -28.346436 28.346466l0 0c-15.655334 0 -28.346466 -12.691162 -28.346466 -28.346466z" fill-rule="evenodd"/><path fill="#610000" d="m220.1337 351.87946l0 0c0 -15.655334 12.691147 -28.346466 28.346466 -28.346466l0 0c7.5179443 0 14.727966 2.9864807 20.043976 8.30249c5.315979 5.315979 8.30249 12.5260315 8.30249 20.043976l0 0c0 15.655304 -12.691162 28.346436 -28.346466 28.346436l0 0c-15.655319 0 -28.346466 -12.691132 -28.346466 -28.346436z" fill-rule="evenodd"/><path stroke="#610000" stroke-width="4.0" stroke-linejoin="round" stroke-linecap="butt" d="m220.1337 351.87946l0 0c0 -15.655334 12.691147 -28.346466 28.346466 -28.346466l0 0c7.5179443 0 14.727966 2.9864807 20.043976 8.30249c5.315979 5.315979 8.30249 12.5260315 8.30249 20.043976l0 0c0 15.655304 -12.691162 28.346436 -28.346466 28.346436l0 0c-15.655319 0 -28.346466 -12.691132 -28.346466 -28.346436z" fill-rule="evenodd"/><path fill="#610000" d="m479.0794 351.87946l0 0c0 -15.655334 12.691132 -28.346466 28.346466 -28.346466l0 0c7.517914 0 14.727997 2.9864807 20.043976 8.30249c5.315979 5.315979 8.30249 12.5260315 8.30249 20.043976l0 0c0 15.655304 -12.691162 28.346436 -28.346466 28.346436l0 0c-15.655334 0 -28.346466 -12.691132 -28.346466 -28.346436z" fill-rule="evenodd"/><path stroke="#610000" stroke-width="4.0" stroke-linejoin="round" stroke-linecap="butt" d="m479.0794 351.87946l0 0c0 -15.655334 12.691132 -28.346466 28.346466 -28.346466l0 0c7.517914 0 14.727997 2.9864807 20.043976 8.30249c5.315979 5.315979 8.30249 12.5260315 8.30249 20.043976l0 0c0 15.655304 -12.691162 28.346436 -28.346466 28.346436l0 0c-15.655334 0 -28.346466 -12.691132 -28.346466 -28.346436z" fill-rule="evenodd"/><path fill="#000000" fill-opacity="0.0" d="m357.90906 290.52823l-89.38583 41.322815" fill-rule="evenodd"/><path stroke="#610000" stroke-width="4.0" stroke-linejoin="round" stroke-linecap="butt" d="m357.90906 290.52823l-89.38583 41.322815" fill-rule="evenodd"/><path fill="#000000" fill-opacity="0.0" d="m397.997 290.52823l89.3858 41.322815" fill-rule="evenodd"/><path stroke="#610000" stroke-width="4.0" stroke-linejoin="round" stroke-linecap="butt" d="m397.997 290.52823l89.3858 41.322815" fill-rule="evenodd"/><path fill="#000000" fill-opacity="0.0" d="m377.95303 161.45013l0 80.6929" fill-rule="evenodd"/><path stroke="#610000" stroke-width="4.0" stroke-linejoin="round" stroke-linecap="butt" d="m377.95303 161.45013l0 80.6929" fill-rule="evenodd"/><path fill="#610000" d="m349.60696 449.38602l0 0c0 -15.655334 12.691132 -28.346466 28.346466 -28.346466l0 0c7.5179443 0 14.727966 2.9865112 20.043976 8.30249c5.315979 5.315979 8.30246 12.5260315 8.30246 20.043976l0 0c0 15.655304 -12.691132 28.346436 -28.346436 28.346436l0 0c-15.655334 0 -28.346466 -12.691132 -28.346466 -28.346436z" fill-rule="evenodd"/><path stroke="#610000" stroke-width="4.0" stroke-linejoin="round" stroke-linecap="butt" d="m349.60696 449.38602l0 0c0 -15.655334 12.691132 -28.346466 28.346466 -28.346466l0 0c7.5179443 0 14.727966 2.9865112 20.043976 8.30249c5.315979 5.315979 8.30246 12.5260315 8.30246 20.043976l0 0c0 15.655304 -12.691132 28.346436 -28.346436 28.346436l0 0c-15.655334 0 -28.346466 -12.691132 -28.346466 -28.346436z" fill-rule="evenodd"/><path fill="#000000" fill-opacity="0.0" d="m377.95303 298.83072l0 122.20471" fill-rule="evenodd"/><path stroke="#610000" stroke-width="4.0" stroke-linejoin="round" stroke-linecap="butt" d="m377.95303 298.83072l0 122.20471" fill-rule="evenodd"/><path fill="#610000" d="m688.691 225.66948l0 0c0 -10.436874 8.460754 -18.897644 18.897644 -18.897644l0 0c5.011963 0 9.8186035 1.9909973 13.36261 5.5349884c3.5440063 3.543991 5.534973 8.350693 5.534973 13.362656l0 0c0 10.436874 -8.460754 18.897629 -18.897583 18.897629l0 0c-10.43689 0 -18.897644 -8.460754 -18.897644 -18.897629z" fill-rule="evenodd"/><path stroke="#610000" stroke-width="4.0" stroke-linejoin="round" stroke-linecap="butt" d="m688.691 225.66948l0 0c0 -10.436874 8.460754 -18.897644 18.897644 -18.897644l0 0c5.011963 0 9.8186035 1.9909973 13.36261 5.5349884c3.5440063 3.543991 5.534973 8.350693 5.534973 13.362656l0 0c0 10.436874 -8.460754 18.897629 -18.897583 18.897629l0 0c-10.43689 0 -18.897644 -8.460754 -18.897644 -18.897629z" fill-rule="evenodd"/><path fill="#000000" fill-opacity="0.0" d="m581.41534 225.66948l107.275635 0" fill-rule="evenodd"/><path stroke="#610000" stroke-width="4.0" stroke-linejoin="round" stroke-linecap="butt" d="m581.41534 225.66948l107.275635 0" fill-rule="evenodd"/><path fill="#610000" d="m688.691 359.9372l0 0c0 -10.43689 8.460754 -18.897644 18.897644 -18.897644l0 0c5.011963 0 9.8186035 1.9909973 13.36261 5.5350037c3.5440063 3.5439758 5.534973 8.3506775 5.534973 13.36264l0 0c0 10.436859 -8.460754 18.897644 -18.897583 18.897644l0 0c-10.43689 0 -18.897644 -8.460785 -18.897644 -18.897644z" fill-rule="evenodd"/><path stroke="#610000" stroke-width="4.0" stroke-linejoin="round" stroke-linecap="butt" d="m688.691 359.9372l0 0c0 -10.43689 8.460754 -18.897644 18.897644 -18.897644l0 0c5.011963 0 9.8186035 1.9909973 13.36261 5.5350037c3.5440063 3.5439758 5.534973 8.3506775 5.534973 13.36264l0 0c0 10.436859 -8.460754 18.897644 -18.897583 18.897644l0 0c-10.43689 0 -18.897644 -8.460785 -18.897644 -18.897644z" fill-rule="evenodd"/><path fill="#000000" fill-opacity="0.0" d="m570.3454 252.39478l123.87402 94.17322" fill-rule="evenodd"/><path stroke="#610000" stroke-width="4.0" stroke-linejoin="round" stroke-linecap="butt" d="m570.3454 252.39478l123.87402 94.17322" fill-rule="evenodd"/><path fill="#610000" d="m67.21545 225.66948l0 0c0 -10.436874 -8.460762 -18.897644 -18.897636 -18.897644l0 0c-5.0119667 0 -9.818653 1.9909973 -13.362648 5.5349884c-3.5439968 3.543991 -5.534992 8.350693 -5.534992 13.362656l0 0c0 10.436874 8.460762 18.897629 18.89764 18.897629l0 0c10.436874 0 18.897636 -8.460754 18.897636 -18.897629z" fill-rule="evenodd"/><path stroke="#610000" stroke-width="4.0" stroke-linejoin="round" stroke-linecap="butt" d="m67.21545 225.66948l0 0c0 -10.436874 -8.460762 -18.897644 -18.897636 -18.897644l0 0c-5.0119667 0 -9.818653 1.9909973 -13.362648 5.5349884c-3.5439968 3.543991 -5.534992 8.350693 -5.534992 13.362656l0 0c0 10.436874 8.460762 18.897629 18.89764 18.897629l0 0c10.436874 0 18.897636 -8.460754 18.897636 -18.897629z" fill-rule="evenodd"/><path fill="#000000" fill-opacity="0.0" d="m175.30994 225.66948l-108.09449 0" fill-rule="evenodd"/><path stroke="#610000" stroke-width="4.0" stroke-linejoin="round" stroke-linecap="butt" d="m175.30994 225.66948l-108.09449 0" fill-rule="evenodd"/><path fill="#610000" d="m67.21545 359.9372l0 0c0 -10.43689 -8.460762 -18.897644 -18.897636 -18.897644l0 0c-5.0119667 0 -9.818653 1.9909973 -13.362648 5.5350037c-3.5439968 3.5439758 -5.534992 8.3506775 -5.534992 13.36264l0 0c0 10.436859 8.460762 18.897644 18.89764 18.897644l0 0c10.436874 0 18.897636 -8.460785 18.897636 -18.897644z" fill-rule="evenodd"/><path stroke="#610000" stroke-width="4.0" stroke-linejoin="round" stroke-linecap="butt" d="m67.21545 359.9372l0 0c0 -10.43689 -8.460762 -18.897644 -18.897636 -18.897644l0 0c-5.0119667 0 -9.818653 1.9909973 -13.362648 5.5350037c-3.5439968 3.5439758 -5.534992 8.3506775 -5.534992 13.36264l0 0c0 10.436859 8.460762 18.897644 18.89764 18.897644l0 0c10.436874 0 18.897636 -8.460785 18.897636 -18.897644z" fill-rule="evenodd"/><path fill="#000000" fill-opacity="0.0" d="m185.56064 252.39478l-123.874016 94.17322" fill-rule="evenodd"/><path stroke="#610000" stroke-width="4.0" stroke-linejoin="round" stroke-linecap="butt" d="m185.56064 252.39478l-123.874016 94.17322" fill-rule="evenodd"/><path fill="#000000" fill-opacity="0.0" d="m377.95276 8.220472l0 77.637794" fill-rule="evenodd"/><path stroke="#610000" stroke-width="4.0" stroke-linejoin="round" stroke-linecap="butt" d="m377.95276 8.220472l0 77.637794" fill-rule="evenodd"/></g></svg>